<?xml version="1.0" encoding="UTF-8" standalone="no"?>
<svg
   xmlns:dc="http://purl.org/dc/elements/1.1/"
   xmlns:cc="http://creativecommons.org/ns#"
   xmlns:rdf="http://www.w3.org/1999/02/22-rdf-syntax-ns#"
   xmlns:svg="http://www.w3.org/2000/svg"
   xmlns="http://www.w3.org/2000/svg"
   xmlns:sodipodi="http://sodipodi.sourceforge.net/DTD/sodipodi-0.dtd"
   xmlns:inkscape="http://www.inkscape.org/namespaces/inkscape"
   viewBox="0 0 160 33.422608"
   version="1.1"
   id="svg18"
   sodipodi:docname="logo-nitrite-white.svg"
   inkscape:version="0.92.5 (2060ec1f9f, 2020-04-08)"
   width="160"
   height="33.422607">
  <metadata
     id="metadata22">
    <rdf:RDF>
      <cc:Work
         rdf:about="">
        <dc:format>image/svg+xml</dc:format>
        <dc:type
           rdf:resource="http://purl.org/dc/dcmitype/StillImage" />
        <dc:title />
      </cc:Work>
    </rdf:RDF>
  </metadata>
  <sodipodi:namedview
     pagecolor="#ffffff"
     bordercolor="#666666"
     borderopacity="1"
     objecttolerance="10"
     gridtolerance="10"
     guidetolerance="10"
     inkscape:pageopacity="0"
     inkscape:pageshadow="2"
     inkscape:window-width="1920"
     inkscape:window-height="1052"
     id="namedview20"
     showgrid="false"
     inkscape:zoom="4.33"
     inkscape:cx="72.999747"
     inkscape:cy="-0.22295818"
     inkscape:window-x="0"
     inkscape:window-y="0"
     inkscape:window-maximized="1"
     inkscape:current-layer="g861"
     scale-x="0.9"
     inkscape:pagecheckerboard="false" />
  <defs
     id="defs2" />
  <g
     id="g861"
     transform="translate(-4,-5.0698515)">
    <g
       id="g862">
      <text
         xml:space="preserve"
         style="font-style:normal;font-variant:normal;font-weight:600;font-stretch:normal;font-size:38.75553894px;line-height:1.25;font-family:'Baloo Chettan 2';-inkscape-font-specification:'Baloo Chettan 2, Semi-Bold';font-variant-ligatures:normal;font-variant-caps:normal;font-variant-numeric:normal;font-feature-settings:normal;text-align:start;letter-spacing:0px;word-spacing:0px;writing-mode:lr-tb;text-anchor:start;fill:#dbeafe;fill-opacity:1;stroke:none;stroke-width:0.20184405;"
         x="50.866787"
         y="35.782551"
         id="text16"
         transform="scale(1.0247196,0.97587672)"><tspan
           style="fill:#dbeafe;fill-opacity:1;stroke-width:0.20184405;"
           id="tspan958"
           sodipodi:role="line"
           x="50.866787"
           y="35.782551">nitrite</tspan></text>
      <flowRoot
         transform="matrix(0.10750921,0,0,0.10750921,-22,5.069851)"
         xml:space="preserve"
         id="flowRoot18"
         style="font-style:normal;font-weight:normal;font-size:40px;line-height:1.25;font-family:sans-serif;letter-spacing:0px;word-spacing:0px;fill:#000000;fill-opacity:1;stroke:none"><flowRegion
           id="flowRegion20"><rect
             id="rect22"
             width="0"
             height="162.5"
             x="1608.3334"
             y="23.381348" /></flowRegion><flowPara
           id="flowPara24" /></flowRoot>      <flowRoot
         transform="matrix(0.10750921,0,0,0.10750921,-22,5.069851)"
         xml:space="preserve"
         id="flowRoot26"
         style="font-style:normal;font-weight:normal;font-size:40px;line-height:1.25;font-family:sans-serif;letter-spacing:0px;word-spacing:0px;fill:#000000;fill-opacity:1;stroke:none"><flowRegion
           id="flowRegion28"><rect
             id="rect30"
             width="25"
             height="129.16667"
             x="620.83331"
             y="152.54802" /></flowRegion><flowPara
           id="flowPara32" /></flowRoot>      <g
         style="fill:#dbeafe;fill-opacity:1"
         id="g15982"
         transform="matrix(0.0605784,0,0,0.0605784,5.241262,6.4320582)">
        <g
           style="fill:#dbeafe;fill-opacity:1"
           id="g15984">
          <path
             style="fill:#dbeafe;fill-opacity:1"
             id="path15986"
             d="m 339.02,327.912 c 7.171,-4.909 14.937,-9.011 23.167,-12.167 3.892,-1.492 5.629,-6.026 3.697,-9.72 L 321.923,221.934 C 415.632,150.31 364.915,0 246.981,0 138.795,0 82.841,129.96 157.168,208.548 l -22.008,29.326 c -2.542,3.386 -1.478,8.211 2.223,10.268 7.594,4.223 14.547,9.465 20.673,15.541 3.011,2.987 7.946,2.665 10.492,-0.725 l 21.994,-29.308 c 29.557,15.229 63.672,17.619 94.404,7.682 l 43.956,84.084 c 1.938,3.705 6.667,4.858 10.118,2.496 z"
             inkscape:connector-curvature="0" />
          <path
             style="fill:#dbeafe;fill-opacity:1"
             id="path15988"
             d="m 91.734,257.179 c -40.447,0 -73.352,32.906 -73.352,73.354 0,40.448 32.906,73.352 73.352,73.352 40.446,0 73.354,-32.906 73.354,-73.352 0,-40.447 -32.906,-73.354 -73.354,-73.354 z"
             inkscape:connector-curvature="0" />
          <path
             style="fill:#dbeafe;fill-opacity:1"
             id="path15990"
             d="m 402.229,329.224 c -50.391,0 -91.387,40.996 -91.387,91.387 0,50.391 40.996,91.387 91.387,91.387 50.391,0 91.387,-40.996 91.387,-91.387 0,-50.391 -40.996,-91.387 -91.387,-91.387 z"
             inkscape:connector-curvature="0" />
        </g>
      </g>
    </g>
  </g>
</svg>
