<?xml version="1.0" encoding="UTF-8" standalone="no"?>
<!-- Generator: Adobe Illustrator 19.0.0, SVG Export Plug-In . SVG Version: 6.00 Build 0)  -->

<svg
   xmlns:dc="http://purl.org/dc/elements/1.1/"
   xmlns:cc="http://creativecommons.org/ns#"
   xmlns:rdf="http://www.w3.org/1999/02/22-rdf-syntax-ns#"
   xmlns:svg="http://www.w3.org/2000/svg"
   xmlns="http://www.w3.org/2000/svg"
   xmlns:sodipodi="http://sodipodi.sourceforge.net/DTD/sodipodi-0.dtd"
   xmlns:inkscape="http://www.inkscape.org/namespaces/inkscape"
   version="1.1"
   id="Layer_1"
   x="0px"
   y="0px"
   viewBox="0 0 511.999 511.999"
   style="enable-background:new 0 0 511.999 511.999;"
   xml:space="preserve"
   width="512px"
   height="512px"
   inkscape:version="0.92.5 (2060ec1f9f, 2020-04-08)"
   sodipodi:docname="nitrite-5.svg"><metadata
     id="metadata16026"><rdf:RDF><cc:Work
         rdf:about=""><dc:format>image/svg+xml</dc:format><dc:type
           rdf:resource="http://purl.org/dc/dcmitype/StillImage" /><dc:title /></cc:Work></rdf:RDF></metadata><defs
     id="defs16024" /><sodipodi:namedview
     pagecolor="#ffffff"
     bordercolor="#666666"
     borderopacity="1"
     objecttolerance="10"
     gridtolerance="10"
     guidetolerance="10"
     inkscape:pageopacity="0"
     inkscape:pageshadow="2"
     inkscape:window-width="1920"
     inkscape:window-height="1052"
     id="namedview16022"
     showgrid="false"
     inkscape:zoom="1.7871094"
     inkscape:cx="153.04044"
     inkscape:cy="256"
     inkscape:window-x="0"
     inkscape:window-y="0"
     inkscape:window-maximized="1"
     inkscape:current-layer="g15980" /><g
     id="g15980"
     style="fill:#ff0000"><g
       id="g15982"
       style="fill:#c166ee;fill-opacity:1"><g
         id="g15984"
         style="fill:#c166ee;fill-opacity:1"><path
           d="M339.02,327.912c7.171-4.909,14.937-9.011,23.167-12.167c3.892-1.492,5.629-6.026,3.697-9.72l-43.961-84.091     C415.632,150.31,364.915,0,246.981,0c-108.186,0-164.14,129.96-89.813,208.548l-22.008,29.326     c-2.542,3.386-1.478,8.211,2.223,10.268c7.594,4.223,14.547,9.465,20.673,15.541c3.011,2.987,7.946,2.665,10.492-0.725     l21.994-29.308c29.557,15.229,63.672,17.619,94.404,7.682l43.956,84.084C330.84,329.121,335.569,330.274,339.02,327.912z"
           fill="#933EC5"
           id="path15986"
           style="fill:#c166ee;fill-opacity:1" /><path
           d="M91.734,257.179c-40.447,0-73.352,32.906-73.352,73.354s32.906,73.352,73.352,73.352s73.354-32.906,73.354-73.352     C165.088,290.086,132.182,257.179,91.734,257.179z"
           fill="#933EC5"
           id="path15988"
           style="fill:#c166ee;fill-opacity:1" /><path
           d="M402.229,329.224c-50.391,0-91.387,40.996-91.387,91.387s40.996,91.387,91.387,91.387s91.387-40.996,91.387-91.387     C493.616,370.22,452.62,329.224,402.229,329.224z"
           fill="#933EC5"
           id="path15990"
           style="fill:#c166ee;fill-opacity:1" /></g></g></g><g
     id="g15992" /><g
     id="g15994" /><g
     id="g15996" /><g
     id="g15998" /><g
     id="g16000" /><g
     id="g16002" /><g
     id="g16004" /><g
     id="g16006" /><g
     id="g16008" /><g
     id="g16010" /><g
     id="g16012" /><g
     id="g16014" /><g
     id="g16016" /><g
     id="g16018" /><g
     id="g16020" /></svg>